<?xml version="1.0" encoding="UTF-8"?>
<svg xmlns="http://www.w3.org/2000/svg" xmlns:xlink="http://www.w3.org/1999/xlink" width="137px" height="46px" viewBox="0 0 137 46" version="1.1">
<g id="surface1">
<path style=" stroke:none;fill-rule:nonzero;fill:rgb(7.058824%,62.7451%,78.039217%);fill-opacity:1;" d="M 36.980469 -0.101562 C 37.292969 -0.109375 37.605469 -0.117188 37.925781 -0.121094 C 38.429688 -0.128906 38.429688 -0.128906 38.949219 -0.132812 C 39.46875 -0.140625 39.46875 -0.140625 40 -0.144531 C 40.734375 -0.152344 41.46875 -0.160156 42.203125 -0.160156 C 43.140625 -0.167969 44.078125 -0.183594 45.019531 -0.207031 C 45.914062 -0.222656 46.8125 -0.222656 47.710938 -0.226562 C 48.046875 -0.238281 48.382812 -0.246094 48.730469 -0.253906 C 50.976562 -0.242188 50.976562 -0.242188 51.824219 0.378906 C 52.261719 0.929688 52.585938 1.484375 52.917969 2.117188 C 53.214844 2.597656 53.507812 3.074219 53.800781 3.550781 C 54.117188 4.09375 54.429688 4.632812 54.742188 5.175781 C 54.910156 5.460938 55.078125 5.75 55.253906 6.046875 C 55.785156 6.960938 56.316406 7.878906 56.847656 8.796875 C 57.207031 9.410156 57.566406 10.027344 57.925781 10.644531 C 58.582031 11.777344 59.242188 12.90625 59.898438 14.039062 C 60.523438 15.113281 61.148438 16.183594 61.785156 17.25 C 62.765625 15.933594 63.582031 14.53125 64.402344 13.089844 C 64.550781 12.828125 64.703125 12.570312 64.855469 12.304688 C 65.738281 10.761719 66.617188 9.214844 67.488281 7.667969 C 67.679688 7.328125 67.875 6.984375 68.066406 6.644531 C 68.4375 5.984375 68.808594 5.324219 69.179688 4.660156 C 71.542969 0.472656 71.542969 0.472656 72.796875 0 C 73.265625 -0.0351562 73.730469 -0.0507812 74.199219 -0.0585938 C 74.484375 -0.0625 74.773438 -0.0664062 75.066406 -0.0742188 C 76.371094 -0.0859375 77.675781 -0.0976562 78.984375 -0.105469 C 79.671875 -0.109375 80.359375 -0.121094 81.050781 -0.128906 C 82.042969 -0.148438 83.035156 -0.152344 84.027344 -0.160156 C 84.335938 -0.164062 84.644531 -0.171875 84.960938 -0.179688 C 87.097656 -0.171875 87.097656 -0.171875 88.136719 0.695312 C 88.304688 0.964844 88.472656 1.234375 88.648438 1.511719 C 88.835938 1.800781 88.835938 1.800781 89.03125 2.097656 C 89.132812 2.285156 89.234375 2.472656 89.339844 2.664062 C 89.523438 2.988281 89.523438 2.988281 89.707031 3.320312 C 89.898438 3.671875 89.898438 3.671875 90.089844 4.027344 C 90.230469 4.277344 90.367188 4.527344 90.507812 4.785156 C 90.808594 5.328125 91.105469 5.871094 91.402344 6.414062 C 91.875 7.269531 92.347656 8.125 92.824219 8.980469 C 94.425781 11.851562 96.015625 14.734375 97.589844 17.625 C 97.960938 18.300781 98.328125 18.976562 98.699219 19.652344 C 99.460938 21.03125 100.214844 22.410156 100.910156 23.832031 C 101.015625 24.035156 101.117188 24.238281 101.226562 24.449219 C 101.480469 24.953125 101.730469 25.46875 101.976562 25.980469 C 102.707031 26.722656 102.890625 26.738281 103.839844 26.765625 C 105.355469 26.667969 106.847656 26.414062 108.339844 26.121094 C 108.617188 26.066406 108.894531 26.015625 109.179688 25.960938 C 111.355469 25.53125 113.5 24.992188 115.640625 24.382812 C 115.859375 24.324219 116.078125 24.261719 116.304688 24.195312 C 116.496094 24.140625 116.6875 24.085938 116.882812 24.027344 C 117.390625 23.90625 117.390625 23.90625 118.195312 23.90625 C 118.195312 24.109375 118.195312 24.308594 118.195312 24.511719 C 111.832031 28.136719 105.050781 29.675781 98.015625 30.660156 C 97.832031 30.6875 97.644531 30.714844 97.453125 30.742188 C 91.953125 31.515625 91.953125 31.515625 89.988281 31.171875 C 89.195312 30.464844 88.714844 29.675781 88.226562 28.6875 C 88.105469 28.4375 87.980469 28.1875 87.851562 27.933594 C 87.722656 27.664062 87.589844 27.398438 87.453125 27.125 C 87.167969 26.550781 86.882812 25.976562 86.59375 25.402344 C 86.449219 25.105469 86.300781 24.8125 86.148438 24.507812 C 85.40625 23.042969 84.644531 21.59375 83.878906 20.144531 C 82.582031 17.679688 81.300781 15.207031 80.050781 12.710938 C 77.992188 16.335938 76.046875 20.035156 74.105469 23.746094 C 73.15625 25.558594 72.199219 27.371094 71.214844 29.160156 C 71.070312 29.417969 70.929688 29.679688 70.78125 29.945312 C 70.265625 30.746094 69.78125 31.109375 68.929688 31.359375 C 68.269531 31.46875 67.648438 31.515625 66.984375 31.519531 C 66.625 31.519531 66.625 31.519531 66.257812 31.523438 C 65.875 31.523438 65.875 31.523438 65.480469 31.523438 C 65.214844 31.527344 64.949219 31.527344 64.675781 31.527344 C 64.109375 31.527344 63.546875 31.53125 62.984375 31.53125 C 62.125 31.53125 61.269531 31.535156 60.414062 31.542969 C 59.863281 31.542969 59.316406 31.542969 58.765625 31.542969 C 58.511719 31.546875 58.257812 31.546875 57.996094 31.550781 C 54.164062 31.535156 54.164062 31.535156 52.980469 30.421875 C 51.90625 29.101562 51.128906 27.496094 50.335938 25.949219 C 50.050781 25.410156 49.769531 24.875 49.488281 24.335938 C 49.273438 23.925781 49.273438 23.925781 49.054688 23.511719 C 47.109375 19.855469 45.03125 16.289062 42.980469 12.710938 C 42.40625 13.773438 41.832031 14.835938 41.257812 15.898438 C 41.050781 16.28125 40.847656 16.664062 40.640625 17.046875 C 39.507812 19.140625 38.382812 21.238281 37.269531 23.347656 C 37.09375 23.683594 36.914062 24.019531 36.730469 24.367188 C 36.394531 25.003906 36.058594 25.640625 35.726562 26.277344 C 35.425781 26.847656 35.121094 27.414062 34.808594 27.976562 C 34.535156 28.476562 34.269531 28.984375 34.015625 29.5 C 33.640625 30.183594 33.335938 30.675781 32.773438 31.171875 C 31.765625 31.425781 30.835938 31.304688 29.816406 31.171875 C 29.539062 31.144531 29.265625 31.121094 28.980469 31.097656 C 28.074219 31.011719 27.175781 30.90625 26.273438 30.792969 C 25.945312 30.75 25.617188 30.710938 25.28125 30.667969 C 19.011719 29.859375 12.796875 28.617188 6.816406 26.292969 C 6.636719 26.222656 6.457031 26.152344 6.273438 26.082031 C 5.125 25.609375 4.199219 25.023438 3.222656 24.210938 C 3.222656 24.109375 3.222656 24.011719 3.222656 23.90625 C 5.351562 24.117188 7.402344 24.597656 9.484375 25.097656 C 13.054688 25.976562 13.054688 25.976562 16.65625 26.632812 C 16.921875 26.671875 17.1875 26.710938 17.457031 26.75 C 18.855469 26.890625 18.855469 26.890625 20.066406 26.222656 C 20.476562 25.59375 20.789062 24.960938 21.105469 24.265625 C 21.371094 23.738281 21.640625 23.210938 21.910156 22.6875 C 22.125 22.253906 22.125 22.253906 22.347656 21.8125 C 23.160156 20.253906 24.066406 18.765625 24.964844 17.269531 C 26.359375 14.949219 27.742188 12.621094 29.046875 10.234375 C 30.199219 8.117188 31.40625 6.042969 32.621094 3.972656 C 32.808594 3.648438 32.996094 3.328125 33.191406 2.996094 C 33.367188 2.695312 33.546875 2.394531 33.726562 2.082031 C 33.886719 1.8125 34.046875 1.542969 34.210938 1.265625 C 35.027344 0.046875 35.6875 -0.078125 36.980469 -0.101562 Z M 36.980469 -0.101562 "/>
<path style=" stroke:none;fill-rule:nonzero;fill:rgb(9.019608%,36.078432%,65.882355%);fill-opacity:1;" d="M 0 24.511719 C 0.386719 24.644531 0.773438 24.773438 1.160156 24.90625 C 1.40625 24.988281 1.652344 25.070312 1.90625 25.15625 C 2.402344 25.324219 2.898438 25.496094 3.394531 25.664062 C 12.902344 28.9375 22.582031 30.886719 32.503906 31.472656 C 32.359375 33.183594 31.78125 34.46875 31.078125 35.957031 C 30.902344 36.332031 30.902344 36.332031 30.71875 36.714844 C 29.449219 39.347656 27.960938 41.820312 26.324219 44.183594 C 26.15625 44.503906 25.988281 44.820312 25.816406 45.148438 C 25.320312 45.804688 25.054688 45.984375 24.296875 46.164062 C 23.40625 46.226562 22.53125 46.226562 21.636719 46.210938 C 21.3125 46.207031 20.988281 46.207031 20.652344 46.207031 C 19.96875 46.207031 19.285156 46.199219 18.597656 46.1875 C 17.546875 46.171875 16.492188 46.167969 15.441406 46.167969 C 14.777344 46.164062 14.109375 46.160156 13.445312 46.152344 C 13.128906 46.152344 12.8125 46.152344 12.488281 46.148438 C 12.195312 46.144531 11.902344 46.136719 11.605469 46.132812 C 11.347656 46.128906 11.089844 46.125 10.824219 46.121094 C 10.621094 46.082031 10.417969 46.042969 10.207031 46 C 10.03125 45.699219 9.851562 45.402344 9.671875 45.09375 C 10.71875 43.152344 11.832031 41.296875 13.027344 39.472656 C 13.15625 39.28125 13.28125 39.089844 13.410156 38.890625 C 13.980469 38.023438 14.550781 37.15625 15.121094 36.292969 C 15.296875 36.027344 15.46875 35.757812 15.648438 35.484375 C 15.796875 35.253906 15.949219 35.023438 16.105469 34.789062 C 16.199219 34.59375 16.289062 34.398438 16.386719 34.199219 C 16.203125 33.242188 16.203125 33.242188 15.5 32.886719 C 15.226562 32.753906 14.953125 32.617188 14.671875 32.476562 C 14.359375 32.324219 14.050781 32.167969 13.730469 32.011719 C 13.390625 31.84375 13.050781 31.679688 12.710938 31.511719 C 12.363281 31.339844 12.015625 31.164062 11.667969 30.992188 C 9.984375 30.15625 8.292969 29.335938 6.597656 28.527344 C 6.035156 28.257812 5.472656 27.988281 4.910156 27.71875 C 4.195312 27.375 3.480469 27.035156 2.761719 26.699219 C 2.441406 26.546875 2.117188 26.390625 1.785156 26.230469 C 1.496094 26.097656 1.210938 25.960938 0.914062 25.824219 C 0.269531 25.421875 0.269531 25.421875 0 24.511719 Z M 0 24.511719 "/>
<path style=" stroke:none;fill-rule:nonzero;fill:rgb(9.019608%,36.078432%,65.882355%);fill-opacity:1;" d="M 120.34375 24.816406 C 120.34375 25.117188 120.34375 25.414062 120.34375 25.722656 C 120.03125 25.886719 119.71875 26.050781 119.398438 26.21875 C 118.21875 26.832031 117.039062 27.449219 115.859375 28.0625 C 115.355469 28.328125 114.847656 28.59375 114.339844 28.855469 C 111.324219 30.429688 108.3125 32.007812 105.300781 33.59375 C 105.453125 34.683594 105.691406 35.449219 106.226562 36.371094 C 106.359375 36.605469 106.492188 36.839844 106.632812 37.082031 C 106.773438 37.328125 106.917969 37.574219 107.066406 37.828125 C 107.355469 38.34375 107.648438 38.855469 107.941406 39.371094 C 108.347656 40.078125 108.753906 40.785156 109.160156 41.488281 C 109.472656 42.023438 109.78125 42.566406 110.085938 43.105469 C 110.261719 43.40625 110.433594 43.703125 110.613281 44.011719 C 110.988281 44.898438 110.925781 45.105469 110.675781 46 C 108.78125 46.03125 106.886719 46.050781 104.996094 46.066406 C 104.351562 46.074219 103.707031 46.082031 103.0625 46.089844 C 102.136719 46.105469 101.210938 46.113281 100.285156 46.117188 C 99.855469 46.128906 99.855469 46.128906 99.414062 46.136719 C 99.007812 46.136719 99.007812 46.136719 98.597656 46.136719 C 98.363281 46.140625 98.125 46.144531 97.882812 46.144531 C 96.878906 45.917969 96.421875 45.175781 95.835938 44.28125 C 95.742188 44.113281 95.648438 43.945312 95.550781 43.773438 C 95.445312 43.582031 95.339844 43.390625 95.226562 43.191406 C 95.0625 42.886719 95.0625 42.886719 94.894531 42.578125 C 94.777344 42.363281 94.660156 42.152344 94.539062 41.933594 C 90.257812 34.042969 90.257812 34.042969 90.257812 31.472656 C 90.433594 31.464844 90.609375 31.453125 90.789062 31.441406 C 100.835938 30.808594 110.921875 28.902344 120.34375 24.816406 Z M 120.34375 24.816406 "/>
<path style=" stroke:none;fill-rule:nonzero;fill:rgb(9.803922%,61.960787%,76.862746%);fill-opacity:1;" d="M 137 15.433594 C 136.976562 15.964844 136.976562 15.964844 136.730469 16.644531 C 136.136719 17.09375 135.582031 17.453125 134.949219 17.8125 C 134.765625 17.921875 134.582031 18.027344 134.394531 18.140625 C 133.808594 18.484375 133.222656 18.820312 132.636719 19.160156 C 132.0625 19.496094 131.488281 19.832031 130.914062 20.167969 C 130.535156 20.390625 130.15625 20.609375 129.777344 20.828125 C 128.886719 21.339844 128.007812 21.867188 127.140625 22.4375 C 126.839844 22.632812 126.535156 22.828125 126.226562 23.03125 C 125.964844 23.207031 125.703125 23.382812 125.433594 23.566406 C 124.429688 24 123.796875 23.894531 122.761719 23.605469 C 122.585938 23.398438 122.410156 23.191406 122.230469 22.976562 C 121.699219 22.28125 121.699219 22.28125 120.761719 22.34375 C 120.425781 22.386719 120.085938 22.425781 119.742188 22.46875 C 119.230469 22.527344 119.230469 22.527344 118.710938 22.589844 C 118.453125 22.625 118.195312 22.660156 117.925781 22.699219 C 118.058594 22.425781 118.058594 22.425781 118.195312 22.148438 C 118.519531 21.46875 118.519531 21.46875 118.464844 20.578125 C 118.464844 20.28125 118.464844 19.980469 118.464844 19.671875 C 120.304688 19.214844 122.144531 18.753906 123.980469 18.296875 C 124.605469 18.144531 125.230469 17.988281 125.855469 17.832031 C 131.839844 16.339844 131.839844 16.339844 134.277344 15.78125 C 134.726562 15.675781 134.726562 15.675781 135.183594 15.574219 C 135.925781 15.433594 135.925781 15.433594 137 15.433594 Z M 137 15.433594 "/>
<path style=" stroke:none;fill-rule:nonzero;fill:rgb(9.411765%,37.254903%,65.490198%);fill-opacity:1;" d="M 135.925781 15.433594 C 136.28125 15.433594 136.632812 15.433594 137 15.433594 C 136.976562 15.964844 136.976562 15.964844 136.730469 16.644531 C 136.136719 17.09375 135.582031 17.453125 134.949219 17.8125 C 134.765625 17.921875 134.582031 18.027344 134.394531 18.140625 C 133.808594 18.484375 133.222656 18.820312 132.636719 19.160156 C 132.0625 19.496094 131.488281 19.832031 130.914062 20.167969 C 130.535156 20.390625 130.15625 20.609375 129.777344 20.828125 C 128.886719 21.339844 128.007812 21.867188 127.140625 22.4375 C 126.6875 22.730469 126.6875 22.730469 126.226562 23.03125 C 125.964844 23.207031 125.703125 23.382812 125.433594 23.566406 C 124.425781 24 123.796875 23.890625 122.761719 23.605469 C 122.109375 23.019531 122.109375 23.019531 121.6875 22.394531 C 121.6875 22.195312 121.6875 21.996094 121.6875 21.789062 C 122.082031 21.625 122.082031 21.625 122.484375 21.457031 C 123.476562 21.039062 124.472656 20.625 125.46875 20.207031 C 125.894531 20.03125 126.324219 19.851562 126.75 19.671875 C 126.953125 19.585938 127.160156 19.5 127.371094 19.414062 C 127.574219 19.328125 127.78125 19.242188 127.992188 19.152344 C 128.613281 18.894531 129.234375 18.632812 129.855469 18.371094 C 130.683594 18.023438 131.511719 17.679688 132.339844 17.339844 C 132.539062 17.257812 132.738281 17.175781 132.941406 17.09375 C 133.316406 16.9375 133.691406 16.785156 134.066406 16.632812 C 134.828125 16.316406 135.34375 16.089844 135.925781 15.433594 Z M 135.925781 15.433594 "/>
</g>
</svg>
